<svg width="300" height="60" viewBox="0 0 300 60" xmlns="http://www.w3.org/2000/svg">
    <g fill="none" fill-rule="evenodd">
        <path d="M0 0h300v60H0z"/>
        <path d="M177.673 22.485h5.855c2.542 0 4.448.876 5.72 2.63 1.27 1.753 1.906 4.353 1.906 7.8s-.636 6.047-1.907 7.8c-1.27 1.754-3.177 2.63-5.72 2.63h-5.854v-20.86zm5.735 18.68c1.641 0 2.897-.579 3.768-1.734.87-1.156 1.306-2.79 1.306-4.902v-3.228c0-2.112-.435-3.746-1.306-4.901-.87-1.156-2.127-1.734-3.768-1.734h-3.213v16.498h3.213zm12.13 2.18v-20.86h12.91v2.181H198.06v7.024h10.028v2.182H198.06v7.292h10.388v2.182h-12.91zm24.259.36c-1.781 0-3.283-.324-4.504-.972a9.01 9.01 0 0 1-3.092-2.705l1.831-1.494c.821 1.036 1.692 1.798 2.612 2.286.921.489 2.002.733 3.243.733 1.501 0 2.657-.35 3.468-1.046.81-.698 1.216-1.674 1.216-2.93 0-1.035-.3-1.832-.901-2.39-.6-.558-1.601-.957-3.002-1.196l-2.342-.388c-1.922-.32-3.303-.982-4.144-1.988-.84-1.006-1.26-2.236-1.26-3.69 0-1.874.62-3.308 1.86-4.305 1.242-.996 2.953-1.494 5.135-1.494 1.621 0 3.017.274 4.188.822a7.006 7.006 0 0 1 2.838 2.376l-1.772 1.524c-.64-.837-1.376-1.474-2.207-1.913-.83-.438-1.856-.657-3.077-.657-1.421 0-2.512.304-3.273.911-.76.608-1.14 1.5-1.14 2.675 0 .977.295 1.754.885 2.331.59.578 1.606.987 3.048 1.226l2.251.388c1.942.34 3.338 1.007 4.189 2.003.85.996 1.276 2.231 1.276 3.706 0 1.275-.285 2.376-.856 3.302-.57.927-1.406 1.64-2.507 2.137-1.1.498-2.422.748-3.963.748zm17.144-10.58-3.003 3.526v6.695h-2.522V22.485h2.522v10.879h.09l2.763-3.467 6.184-7.412h3.033l-7.356 8.786 7.566 12.075h-2.942l-6.335-10.222zm20.206-8.459v18.68h-2.522v-18.68h-6.996v-2.181h16.513v2.181h-6.995zM273.9 43.705c-2.502 0-4.348-.922-5.54-2.765-1.19-1.843-1.786-4.518-1.786-8.025 0-3.507.596-6.181 1.787-8.024 1.19-1.844 3.037-2.765 5.54-2.765 2.501 0 4.348.921 5.539 2.765 1.19 1.843 1.786 4.517 1.786 8.024 0 3.507-.595 6.182-1.786 8.025s-3.038 2.765-5.54 2.765zm0-2.182c1.602 0 2.777-.603 3.528-1.808.75-1.206 1.126-2.904 1.126-5.096v-3.407c0-2.192-.375-3.89-1.126-5.096-.75-1.206-1.926-1.808-3.528-1.808-1.601 0-2.777.602-3.528 1.808-.75 1.205-1.125 2.904-1.125 5.096v3.407c0 2.192.375 3.89 1.125 5.096.751 1.205 1.927 1.808 3.528 1.808zm11.71 1.823V22.485h7.626c1.921 0 3.397.528 4.428 1.584 1.031 1.056 1.547 2.53 1.547 4.423 0 1.893-.516 3.367-1.547 4.423-1.03 1.056-2.507 1.584-4.428 1.584h-5.104v8.847h-2.522zm2.522-11.029h5.044c1.06 0 1.886-.264 2.477-.792.59-.528.885-1.28.885-2.256v-1.554c0-.976-.295-1.729-.885-2.257-.59-.528-1.416-.792-2.477-.792h-5.044v7.651zM92.819 23.03l-2.536 17.577h-.05l-2.22-17.577h-6.32l-2.229 17.577h-.048l-2.535-17.577h-3.857l3.148 20.352h6.303l2.328-17.542h.048l2.303 17.548h6.31l3.214-20.346h-3.846s-.013-.057-.013-.012m67.03-.579a4.839 4.839 0 0 0-4.536 2.674 4.159 4.159 0 0 0-1.33-1.867 4.05 4.05 0 0 0-2.593-.807 4.487 4.487 0 0 0-2.546.715 4.144 4.144 0 0 0-1.432 1.746v-1.883h-3.754v20.343h3.754V29.467a4.049 4.049 0 0 1 .718-2.496 2.25 2.25 0 0 1 1.933-.892 2.048 2.048 0 0 1 1.649.715c.44.549.67 1.241.634 1.946v14.618h3.764V29.702a4.311 4.311 0 0 1 .715-2.772 2.314 2.314 0 0 1 1.872-.85 1.981 1.981 0 0 1 1.748.714c.408.616.61 1.346.577 2.08v14.465h3.783V27.876a5.833 5.833 0 0 0-1.238-3.902 4.689 4.689 0 0 0-3.719-1.524m-47.316 13.784L106.02 40h.045c-.28.18-.606.28-.938.286a1.849 1.849 0 0 1-1.811-1.804 1.759 1.759 0 0 1 .921-1.571l8.296-4.74v4.063zm3.611 2.124v-15.23h-15.45v3.565h11.84v1.283l-10.108 5.77a5.38 5.38 0 0 0-2.737 4.692 5.171 5.171 0 0 0 1.649 3.886 5.674 5.674 0 0 0 3.824 1.518 5.305 5.305 0 0 0 2.702-.711l5.014-2.918 4.197 3.616h.039l2.376-2.645-.035.029-3.31-2.855zm16.678-15.93a6.456 6.456 0 0 0-5.358 2.598l-2.393-2.185-2.357 2.62 3.397 3.064v11.198h-3.378v3.515h12.181v-3.515h-5.15v-10.37a3.29 3.29 0 0 1 2.864-3.324 3.18 3.18 0 0 1 3.489 3.153v1.171h3.53v-1.171a6.455 6.455 0 0 0-2.047-4.77 6.544 6.544 0 0 0-4.778-1.983m-64.66 11.067a4.74 4.74 0 0 0-1.69-1.025 10.935 10.935 0 0 0-1.949-.714 33.43 33.43 0 0 0-2.207-.521 11.1 11.1 0 0 1-3.496-1.169 2.039 2.039 0 0 1-1.08-1.762c-.049-.75.321-1.46.969-1.848a4.233 4.233 0 0 1 3.148-.54c1.04.255 1.99.772 2.769 1.502.162.137 1.795 1.642 1.767 1.677l2.357-2.66s-1.13-1.14-1.668-1.61a9.328 9.328 0 0 0-4.52-2.309 8.776 8.776 0 0 0-5.18.781 6.71 6.71 0 0 0-1.196.778 5.392 5.392 0 0 0-2.064 4.35c0 1.854.587 3.172 1.793 4.035a12.442 12.442 0 0 0 4.82 1.95c1.361.238 2.691.635 3.96 1.175a1.633 1.633 0 0 1 1.14 1.59c.031.87-.412 1.69-1.162 2.14a6.01 6.01 0 0 1-5.9 0 13.754 13.754 0 0 1-2.042-1.619c-.51-.429-.992-.892-1.483-1.35l-2.293 2.747s1.12 1.041 1.218 1.127a11.2 11.2 0 0 0 5.308 3c.743.156 1.505.232 2.264.23 2.02.07 4-.547 5.624-1.747a5.818 5.818 0 0 0 2.34-4.87 4.34 4.34 0 0 0-.471-1.912 3.879 3.879 0 0 0-1.075-1.426m-58.513-3.73 9.651 5.398v10.76L9.65 51.317 0 45.925v-10.76l9.649-5.398zm22.085 0 9.652 5.398v10.76l-9.652 5.392-9.648-5.391v-10.76l9.648-5.398zM20.616 10.978l3.697 2.198v6.337l1.27.705 4.698 2.626v4.286l-9.649 5.391-9.648-5.391v-10.76l9.632-5.392zm11.285-1.503 5.142 2.87v5.75l-5.1 2.845-.042-.022-5.11-2.852v-5.699l.01-.041 5.1-2.851z" fill="#303030" fill-rule="nonzero"/>
    </g>
</svg>
